<svg width="83" height="76" viewBox="0 0 83 76" fill="none" xmlns="http://www.w3.org/2000/svg">
<path d="M47.932 43.0028C47.2634 43.1525 46.6122 43.4299 46.0187 43.8175C44.4727 44.8027 43.5732 46.2089 44.0098 46.9582C44.4464 47.7075 46.0536 47.5158 47.5996 46.5307C48.2011 46.1568 48.7353 45.6789 49.1696 45.1266C49.3711 44.8598 49.4073 44.5273 49.262 44.2787L48.6948 43.3054C48.5505 43.056 48.2512 42.9375 47.932 43.0028Z" fill="#D5D6DB"/>
<path d="M44.0499 29.7154C43.565 29.824 43.0928 30.0253 42.6624 30.3064C41.5416 31.0205 40.889 32.0402 41.2054 32.583C41.5217 33.1259 42.6875 32.9868 43.8082 32.2727C44.2443 32.0015 44.6317 31.6548 44.9466 31.2543C45.0925 31.0608 45.1187 30.82 45.0134 30.6398L44.6027 29.935C44.4982 29.7542 44.2813 29.6681 44.0499 29.7154Z" fill="#D5D6DB"/>
<path d="M37.742 30.2719C37.6341 30.2599 37.519 30.2886 37.4192 30.3524L34.7866 32.0301C34.5664 32.17 34.4782 32.4394 34.59 32.632C34.6155 32.6761 34.6505 32.7138 34.6929 32.7428L41.1816 37.2149L49.9601 31.6206L37.742 30.2719Z" fill="#029BC5"/>
<path d="M65.4934 29.6396L41.6037 44.6789L27.4698 50.303L20.2617 51.7358L19.4688 50.3884L59.2893 25.8022C60.4761 25.0664 61.7981 24.6147 63.1216 24.4931C63.7013 24.4429 64.2737 24.4622 64.8256 24.5502C65.3149 24.6244 65.779 24.7675 66.2041 24.9753C66.6786 25.2107 67.5817 25.2378 67.8742 25.7069C67.8752 25.7061 68.5653 27.8594 65.4934 29.6396V29.6396Z" fill="#E1E6E9"/>
<path d="M41.9203 42.6887L31.5854 59.1643C31.4563 59.3957 31.533 59.6549 31.7564 59.7431C31.8935 59.7973 32.0613 59.7759 32.2023 59.6863L34.8329 58.0175C35.3388 57.6964 35.7868 57.2885 36.1492 56.8191L56.1918 33.2556L41.9203 42.6887Z" fill="#029BC5"/>
<path d="M15.8411 42.1389C15.6687 42.0799 15.4635 42.1105 15.2903 42.2208L13.1158 43.6057C12.8195 43.7942 12.7015 44.1568 12.852 44.4155C12.8807 44.4647 12.918 44.508 12.9626 44.5437L19.0551 49.423L25.4607 45.4219L15.8411 42.1389Z" fill="#029BC5"/>
<path d="M21.0972 50.3025L17.8181 54.8949C17.77 54.9609 17.7813 55.0438 17.8433 55.0799C17.888 55.1059 17.9491 55.1012 17.9987 55.068L20.0308 53.7803C20.0466 53.7703 20.0609 53.7577 20.0727 53.7434L24.8641 47.9177L21.0972 50.3025Z" fill="#029BC5"/>
<path d="M64.4333 24.7481C63.8651 24.6568 63.2755 24.6373 62.6785 24.6898C62.0972 25.5025 61.7257 26.4155 61.6009 27.3377C61.5918 27.5229 61.7411 27.6563 61.9345 27.6355C61.9947 27.629 62.0545 27.6078 62.1083 27.574L65.8532 25.1894C65.4154 24.9735 64.9373 24.8249 64.4333 24.7481Z" fill="#029BC5"/>
<path d="M56.2722 29.1331L58.7172 27.5889L60.9947 31.4624L58.5497 33.0066L56.2722 29.1331Z" fill="#D5D6DB"/>
<path d="M54.7338 30.6651C54.4392 30.8518 54.3214 31.2105 54.471 31.4663L54.7134 31.8808C54.8728 32.1301 55.2367 32.174 55.5262 31.9787C55.8018 31.7927 55.9128 31.4547 55.78 31.2051L55.5377 30.7906C55.3882 30.535 55.0285 30.4788 54.7338 30.6651V30.6651Z" fill="#3A556A"/>
<path d="M52.5363 32.0299C52.2417 32.2165 52.1239 32.5753 52.2735 32.8311L52.5158 33.2456C52.6753 33.4949 53.0392 33.5387 53.3287 33.3434C53.6043 33.1575 53.7153 32.8194 53.5825 32.5699L53.3401 32.1554C53.1906 31.8999 52.8308 31.8436 52.5363 32.0299V32.0299Z" fill="#3A556A"/>
<path d="M50.3379 33.395C50.0436 33.5819 49.9263 33.9402 50.0757 34.1958L50.3181 34.6103C50.4775 34.8596 50.8414 34.9034 51.131 34.7081C51.4066 34.5222 51.5175 34.1842 51.3847 33.9346L51.1424 33.5201C50.9928 33.2643 50.6327 33.2083 50.3379 33.395V33.395Z" fill="#3A556A"/>
<path d="M48.1404 34.7598C47.8461 34.9466 47.7288 35.305 47.8782 35.5606L48.1206 35.975C48.28 36.2244 48.6439 36.2682 48.9335 36.0729C49.2091 35.8869 49.32 35.5489 49.1872 35.2993L48.9449 34.8849C48.7952 34.6291 48.4351 34.5731 48.1404 34.7598V34.7598Z" fill="#3A556A"/>
<path d="M45.943 36.1246C45.6485 36.3116 45.5311 36.67 45.6806 36.9258L45.9231 37.3404C46.0726 37.596 46.4326 37.652 46.7271 37.4654C47.0217 37.2789 47.1393 36.9204 46.9898 36.6648L46.7473 36.2502C46.5982 35.9943 46.2384 35.938 45.9436 36.1242C45.9434 36.1244 45.9432 36.1245 45.943 36.1246Z" fill="#3A556A"/>
<path d="M43.7455 37.4894C43.451 37.6763 43.3336 38.0348 43.4831 38.2905L43.7256 38.7051C43.8751 38.9608 44.2351 39.0167 44.5296 38.8302C44.8242 38.6436 44.9418 38.2852 44.7923 38.0296L44.5498 37.6149C44.4007 37.3591 44.0408 37.3027 43.7461 37.489C43.7459 37.4891 43.7456 37.4893 43.7455 37.4894Z" fill="#3A556A"/>
<path d="M41.5477 38.8541C41.2532 39.0411 41.1358 39.3995 41.2854 39.6552L41.5279 40.0699C41.6777 40.3252 42.0378 40.3807 42.3321 40.1939C42.6258 40.0074 42.7432 39.6497 42.5944 39.3944L42.3519 38.9798C42.2025 38.724 41.8425 38.6677 41.5477 38.8541Z" fill="#3A556A"/>
<path d="M39.35 40.2188C39.0555 40.4058 38.9381 40.7643 39.0876 41.02L39.3301 41.4346C39.48 41.69 39.8401 41.7454 40.1343 41.5586C40.428 41.3721 40.5454 41.0144 40.3966 40.7591L40.1541 40.3445C40.0047 40.0887 39.6448 40.0324 39.35 40.2188Z" fill="#3A556A"/>
<path d="M37.1525 41.5836C36.858 41.7706 36.7406 42.129 36.8901 42.3847L37.1326 42.7994C37.2824 43.0547 37.6426 43.1101 37.9368 42.9233C38.2305 42.7369 38.3479 42.3792 38.1991 42.1239L37.9566 41.7093C37.8071 41.4535 37.4471 41.3973 37.1525 41.5836Z" fill="#3A556A"/>
<path d="M34.9542 42.9488C34.6597 43.1354 34.5421 43.4938 34.6916 43.7494L34.6919 43.75L34.9343 44.1646C35.0842 44.42 35.4443 44.4754 35.7386 44.2886C36.0323 44.1021 36.1496 43.7444 36.0009 43.4891L35.7584 43.0745C35.609 42.8187 35.249 42.7624 34.9542 42.9488Z" fill="#3A556A"/>
<path d="M32.7572 44.3131C32.4627 44.4996 32.3451 44.8581 32.4945 45.1137L32.4949 45.1142L32.7373 45.5289C32.8872 45.7842 33.2473 45.8396 33.5416 45.6528C33.8353 45.4664 33.9527 45.1087 33.8039 44.8534L33.5614 44.4387C33.4118 44.183 33.0519 44.1268 32.7572 44.3131Z" fill="#3A556A"/>
</svg>
